<?xml version="1.0" encoding="UTF-8"?>
<svg width="16px" height="12px" viewBox="0 0 16 12" version="1.1" xmlns="http://www.w3.org/2000/svg" xmlns:xlink="http://www.w3.org/1999/xlink">
    <!-- Generator: Sketch 52.1 (67048) - http://www.bohemiancoding.com/sketch -->
    <title>Shape</title>
    <desc>Created with Sketch.</desc>
    <g id="Page-1" stroke="none" stroke-width="1" fill="none" fill-rule="evenodd">
        <g id="add-items" transform="translate(-128.000000, -235.000000)" fill="#38B449" fill-rule="nonzero">
            <g id="add-btn" transform="translate(115.000000, 230.000000)">
                <g id="001-photo-camera" transform="translate(13.000000, 5.000000)">
                    <path d="M7.57894737,4.5 C6.32311579,4.5 5.30526316,5.5077 5.30526316,6.75 C5.30526316,7.99275 6.32311579,9 7.57894737,9 C8.83447579,9 9.85263158,7.99275 9.85263158,6.75 C9.85263158,5.5077 8.83447579,4.5 7.57894737,4.5 Z M13.6421053,2.25 L11.8231579,2.25 C11.5730526,2.25 11.3035453,2.058 11.2245726,1.8231 L10.7543747,0.42675 C10.6750989,0.192 10.4058947,0 10.1557895,0 L5.00210526,0 C4.752,0 4.48249263,0.192 4.40352,0.4269 L3.93332211,1.82325 C3.85404632,2.058 3.58484211,2.25 3.33473684,2.25 L1.51578947,2.25 C0.682105263,2.25 0,2.925 0,3.75 L0,10.5 C0,11.325 0.682105263,12 1.51578947,12 L13.6421053,12 C14.4757895,12 15.1578947,11.325 15.1578947,10.5 L15.1578947,3.75 C15.1578947,2.925 14.4757895,2.25 13.6421053,2.25 Z M7.57894737,10.5 C5.48609684,10.5 3.78947368,8.82105 3.78947368,6.75 C3.78947368,4.6791 5.48609684,3 7.57894737,3 C9.67149474,3 11.3684211,4.6791 11.3684211,6.75 C11.3684211,8.82105 9.67149474,10.5 7.57894737,10.5 Z M13.1115789,4.79895 C12.8187284,4.79895 12.5810526,4.56405 12.5810526,4.27395 C12.5810526,3.98415 12.8187284,3.74895 13.1115789,3.74895 C13.4047326,3.74895 13.6421053,3.98415 13.6421053,4.27395 C13.6421053,4.56405 13.4045811,4.79895 13.1115789,4.79895 Z" id="Shape"></path>
                </g>
            </g>
        </g>
    </g>
</svg>