<?xml version="1.0" encoding="UTF-8"?>
<svg width="12px" height="21px" viewBox="0 0 12 21" version="1.1" xmlns="http://www.w3.org/2000/svg" xmlns:xlink="http://www.w3.org/1999/xlink">
    <!-- Generator: Sketch 52.1 (67048) - http://www.bohemiancoding.com/sketch -->
    <title>Shape</title>
    <desc>Created with Sketch.</desc>
    <g id="Page-1" stroke="none" stroke-width="1" fill="none" fill-rule="evenodd">
        <g id="listing-descriptionPage" transform="translate(-54.000000, -480.000000)" fill="#3A5898" fill-rule="nonzero">
            <g id="share-section" transform="translate(21.000000, 453.000000)">
                <g id="share-facebook" transform="translate(9.000000, 17.000000)">
                    <path d="M34.6026484,10.00424 L31.9600424,10 C28.9911651,10 27.0725462,11.9684394 27.0725462,15.0151214 L27.0725462,17.3274281 L24.4155241,17.3274281 C24.1859258,17.3274281 24,17.513566 24,17.7431642 L24,21.0934332 C24,21.3230315 24.1861378,21.5089573 24.4155241,21.5089573 L27.0725462,21.5089573 L27.0725462,29.9627525 C27.0725462,30.1923508 27.2584721,30.3782766 27.4880703,30.3782766 L30.9547285,30.3782766 C31.1843267,30.3782766 31.3702526,30.1921388 31.3702526,29.9627525 L31.3702526,21.5089573 L34.4769311,21.5089573 C34.7065294,21.5089573 34.8924552,21.3230315 34.8924552,21.0934332 L34.8937272,17.7431642 C34.8937272,17.6329231 34.8498428,17.5273461 34.7720381,17.4493293 C34.6942333,17.3713126 34.5882322,17.3274281 34.4779912,17.3274281 L31.3702526,17.3274281 L31.3702526,15.3672568 C31.3702526,14.4251196 31.5947628,13.9468429 32.8220429,13.9468429 L34.6022244,13.9462069 C34.8316106,13.9462069 35.0175365,13.760069 35.0175365,13.5306828 L35.0175365,10.4197641 C35.0175365,10.1905899 34.8318226,10.004664 34.6026484,10.00424 Z" id="Shape"></path>
                </g>
            </g>
        </g>
    </g>
</svg>