<?xml version="1.0" encoding="UTF-8"?>
<svg width="9px" height="15px" viewBox="0 0 9 15" version="1.1" xmlns="http://www.w3.org/2000/svg" xmlns:xlink="http://www.w3.org/1999/xlink">
    <!-- Generator: Sketch 52.1 (67048) - http://www.bohemiancoding.com/sketch -->
    <title>Shape</title>
    <desc>Created with Sketch.</desc>
    <g id="Page-1" stroke="none" stroke-width="1" fill="none" fill-rule="evenodd">
        <g id="signin" transform="translate(-82.000000, -232.000000)" fill="#FFFFFF" fill-rule="nonzero">
            <g id="fb-btn" transform="translate(32.000000, 221.000000)">
                <g id="Group" transform="translate(50.000000, 10.000000)">
                    <path d="M7.71561913,1.00308551 L5.79257681,1 C3.63210472,1 2.23591274,2.43244668 2.23591274,4.64953783 L2.23591274,6.33221915 L0.302379699,6.33221915 C0.135299488,6.33221915 0,6.46767291 0,6.63475312 L0,9.07276658 C0,9.23984679 0.135453763,9.37514628 0.302379699,9.37514628 L2.23591274,9.37514628 L2.23591274,15.5270304 C2.23591274,15.6941106 2.37121223,15.8294101 2.53829244,15.8294101 L5.06100307,15.8294101 C5.22808328,15.8294101 5.36338277,15.6939563 5.36338277,15.5270304 L5.36338277,9.37514628 L7.62413384,9.37514628 C7.79121405,9.37514628 7.92651354,9.23984679 7.92651354,9.07276658 L7.92743919,6.63475312 C7.92743919,6.55452993 7.89550419,6.47770081 7.83888514,6.42092748 C7.78226608,6.36415414 7.7051284,6.33221915 7.62490522,6.33221915 L5.36338277,6.33221915 L5.36338277,4.9057892 C5.36338277,4.22018952 5.52676037,3.87214431 6.41986041,3.87214431 L7.71531058,3.87168149 C7.88223651,3.87168149 8.017536,3.73622772 8.017536,3.56930179 L8.017536,1.30546521 C8.017536,1.13869355 7.88239079,1.00339406 7.71561913,1.00308551 Z" id="Shape"></path>
                </g>
            </g>
        </g>
    </g>
</svg>