<?xml version="1.0" encoding="UTF-8"?>
<svg width="13px" height="13px" viewBox="0 0 13 13" version="1.1" xmlns="http://www.w3.org/2000/svg" xmlns:xlink="http://www.w3.org/1999/xlink">
    <!-- Generator: Sketch 52.1 (67048) - http://www.bohemiancoding.com/sketch -->
    <title>search</title>
    <desc>Created with Sketch.</desc>
    <g id="Page-1" stroke="none" stroke-width="1" fill="none" fill-rule="evenodd">
        <g id="signin" transform="translate(-89.000000, -345.000000)">
            <g id="twitter-btn-copy" transform="translate(32.000000, 333.000000)">
                <g id="Group" transform="translate(57.000000, 10.000000)">
                    <g id="search" transform="translate(0.000000, 2.000000)">
                        <path d="M2.73684211,7.82959522 L2.30698399,9.54345028 L0.735862482,9.57894737 C0.266327756,8.64883607 0,7.58467046 0,6.45381257 C0,5.36028072 0.24900994,4.32906197 0.690397184,3.42105263 L0.690734857,3.42105263 L2.08947415,3.69493147 L2.70220647,5.17983289 C2.57396298,5.57913649 2.5040646,6.00778058 2.5040646,6.45381257 C2.50411284,6.93789187 2.58621569,7.40169817 2.73684211,7.82959522 Z" id="Path" fill="#FBBB00"></path>
                        <path d="M12.8777629,5.47368421 C12.9581065,5.85904098 13,6.25701405 13,6.66374635 C13,7.11982403 12.9473394,7.56470382 12.8470192,7.99383191 C12.5064607,9.45411161 11.6165869,10.729228 10.3838591,11.6315789 L10.3834765,11.6312306 L8.38734784,11.5384871 L8.10483348,9.93258508 C8.92280791,9.49576777 9.56205881,8.81217382 9.89879144,7.99383191 L6.15789474,7.99383191 L6.15789474,5.47368421 L9.95336497,5.47368421 L12.8777629,5.47368421 Z" id="Path" fill="#518EF8"></path>
                        <path d="M10.2628103,11.6672095 L10.2631579,11.6675404 C9.17377543,12.5011965 7.78991629,13 6.28348888,13 C3.86264173,13 1.75789948,11.7117729 0.684210526,9.81599328 L2.74425608,8.21052632 C3.28108814,9.57457039 4.66318425,10.5455812 6.28348888,10.5455812 C6.97993779,10.5455812 7.63241012,10.3663344 8.19228581,10.0534208 L10.2628103,11.6672095 Z" id="Path" fill="#28B446"></path>
                        <path d="M10.2631579,1.36664547 L8.23027279,2.94106111 C7.65827643,2.60283166 6.98212697,2.40744421 6.25773716,2.40744421 C4.62205064,2.40744421 3.23219876,3.40355846 2.72881255,4.78947368 L0.6845537,3.20624636 L0.684210526,3.20624636 C1.72858494,1.30141583 3.8324824,0 6.25773716,0 C7.78032356,0 9.17637707,0.513071766 10.2631579,1.36664547 Z" id="Path" fill="#F14336"></path>
                    </g>
                </g>
            </g>
        </g>
    </g>
</svg>