<?xml version="1.0" encoding="UTF-8"?>
<svg width="19px" height="14px" viewBox="0 0 19 14" version="1.1" xmlns="http://www.w3.org/2000/svg" xmlns:xlink="http://www.w3.org/1999/xlink">
    <!-- Generator: Sketch 52.1 (67048) - http://www.bohemiancoding.com/sketch -->
    <title>003-message-closed-envelope</title>
    <desc>Created with Sketch.</desc>
    <g id="Page-1" stroke="none" stroke-width="1" fill="none" fill-rule="evenodd">
        <g id="listing-homepage" transform="translate(-242.000000, -45.000000)" fill="#757575" fill-rule="nonzero">
            <g id="top-nav">
                <g id="Tool-bar">
                    <g id="003-message-closed-envelope" transform="translate(242.000000, 45.000000)">
                        <path d="M16.4511428,0 L2.21557272,0 C0.993915476,0 0,0.9425243 0,2.10101059 L0,11.8989894 C0,13.0574757 0.993915476,14 2.21557272,14 L16.4511428,14 C17.6728,14 18.6666667,13.0574757 18.6666667,11.8989894 L18.6666667,2.10101059 C18.6666667,0.9425243 17.6728,0 16.4511428,0 Z M16.4511428,12.1451485 L2.21557272,12.1451485 C2.0359977,12.1451485 1.87850318,12.0301488 1.87850318,11.8989894 L1.87850318,3.3966378 L8.31687328,8.76409156 C8.44886776,8.87417091 8.61671861,8.93475797 8.78955224,8.93475797 L9.87691902,8.9348062 C10.0496549,8.9348062 10.2176035,8.87417091 10.3496468,8.76409156 L16.78831,3.39644485 L16.78831,11.8990859 C16.7882123,12.0301488 16.630669,12.1451485 16.4511428,12.1451485 Z M9.33335776,7.09302718 L3.07124083,1.85485155 L15.5954747,1.85485155 L9.33335776,7.09302718 Z" id="Shape"></path>
                    </g>
                </g>
            </g>
        </g>
    </g>
</svg>