<?xml version="1.0" encoding="UTF-8"?>
<svg width="17px" height="18px" viewBox="0 0 17 18" version="1.1" xmlns="http://www.w3.org/2000/svg" xmlns:xlink="http://www.w3.org/1999/xlink">
    <!-- Generator: Sketch 52.1 (67048) - http://www.bohemiancoding.com/sketch -->
    <title>search</title>
    <desc>Created with Sketch.</desc>
    <g id="Page-1" stroke="none" stroke-width="1" fill="none" fill-rule="evenodd">
        <g id="listing-homepage" transform="translate(-204.000000, -44.000000)">
            <g id="top-nav">
                <g id="Tool-bar">
                    <g id="search" transform="translate(200.000000, 42.000000)">
                        <polygon id="Shape" transform="translate(11.000000, 11.000000) scale(1, -1) translate(-11.000000, -11.000000) " points="22 0 0 0 0 22 22 22"></polygon>
                        <path d="M15.8159656,8.51543025 L15.0655355,8.51543025 L14.8046807,8.78518497 C15.7261786,9.90456861 16.2866384,11.3557309 16.2866384,12.9457085 C16.2866384,16.480086 13.5363216,19.3449993 10.1433192,19.3449993 C6.75031674,19.3449993 4,16.480086 4,12.9457085 C4,9.41133097 6.75031674,6.5464177 10.1433192,6.5464177 C11.6696977,6.5464177 13.0618683,7.12924541 14.1364766,8.08815453 L14.3973314,7.81839981 L14.3973314,7.03867083 L19.1210713,2.125 L20.5302542,3.59289886 L15.8159656,8.51543025 L15.8159656,8.51543025 Z M10.1433192,8.51543025 C7.79373587,8.51543025 5.89025205,10.4982259 5.89025205,12.9457085 C5.89025205,15.3922066 7.79373587,17.3759868 10.1433192,17.3759868 C12.4919574,17.3759868 14.3963863,15.3922066 14.3963863,12.9457085 C14.3963863,10.4982259 12.4919574,8.51543025 10.1433192,8.51543025 L10.1433192,8.51543025 Z" id="Shape" fill="#000000" opacity="0.539999962" transform="translate(12.265127, 10.735000) scale(1, -1) translate(-12.265127, -10.735000) "></path>
                    </g>
                </g>
            </g>
        </g>
    </g>
</svg>