<?xml version="1.0" encoding="UTF-8"?>
<svg width="16px" height="13px" viewBox="0 0 16 13" version="1.1" xmlns="http://www.w3.org/2000/svg" xmlns:xlink="http://www.w3.org/1999/xlink">
    <!-- Generator: Sketch 52.1 (67048) - http://www.bohemiancoding.com/sketch -->
    <title>Shape</title>
    <desc>Created with Sketch.</desc>
    <g id="Page-1" stroke="none" stroke-width="1" fill="none" fill-rule="evenodd">
        <g id="signin" transform="translate(-87.000000, -289.000000)" fill="#FFFFFF" fill-rule="nonzero">
            <g id="twitter-btn" transform="translate(32.000000, 277.000000)">
                <g id="Group" transform="translate(55.000000, 10.000000)">
                    <path d="M15.1538462,3.45761058 C14.5903125,3.70480769 13.9898413,3.86865865 13.3637981,3.94821635 C14.0078365,3.5636875 14.4993894,2.95942788 14.7304856,2.23109615 C14.1300144,2.58910577 13.4670337,2.84198558 12.7604856,2.98310577 C12.1903221,2.37600481 11.3776971,2 10.4911971,2 C8.77123558,2 7.38655288,3.39604808 7.38655288,5.10748558 C7.38655288,5.35373558 7.40738942,5.59051442 7.45853365,5.81592788 C4.87575,5.68996154 2.59036058,4.45208173 1.05508654,2.566375 C0.787052885,3.03140865 0.629831731,3.5636875 0.629831731,4.13669231 C0.629831731,5.21261538 1.18389423,6.16636058 2.00977885,6.71852885 C1.51064904,6.70905769 1.02099038,6.56414904 0.606153846,6.33589423 C0.606153846,6.34536538 0.606153846,6.35767788 0.606153846,6.36999038 C0.606153846,7.87969231 1.68302404,9.13367308 3.09517308,9.42254327 C2.84229327,9.49168269 2.56668269,9.52483173 2.28065385,9.52483173 C2.08175962,9.52483173 1.88097115,9.51346635 1.69249519,9.47179327 C2.09501923,10.7020962 3.23724038,11.6065913 4.59540385,11.6359519 C3.53842308,12.4627837 2.19636058,12.9609663 0.743485577,12.9609663 C0.488711538,12.9609663 0.244355769,12.949601 0,12.9183462 C1.37615865,13.8057933 3.00709135,14.3125 4.76588462,14.3125 C10.4826731,14.3125 13.6081538,9.57692308 13.6081538,5.472125 C13.6081538,5.33479327 13.6034183,5.20219712 13.5967885,5.07054808 C14.2133606,4.63298077 14.7314327,4.08649519 15.1538462,3.45761058 Z" id="Shape"></path>
                </g>
            </g>
        </g>
    </g>
</svg>