<?xml version="1.0" encoding="UTF-8"?>
<svg width="25px" height="20px" viewBox="0 0 25 20" version="1.1" xmlns="http://www.w3.org/2000/svg" xmlns:xlink="http://www.w3.org/1999/xlink">
    <!-- Generator: Sketch 52.1 (67048) - http://www.bohemiancoding.com/sketch -->
    <title>Shape</title>
    <desc>Created with Sketch.</desc>
    <g id="Page-1" stroke="none" stroke-width="1" fill="none" fill-rule="evenodd">
        <g id="listing-descriptionPage" transform="translate(-128.000000, -480.000000)" fill="#00ACED" fill-rule="nonzero">
            <g id="share-section" transform="translate(21.000000, 453.000000)">
                <g id="share-twitter" transform="translate(89.000000, 17.000000)">
                    <path d="M42.6153846,12.3676923 C41.7,12.7692308 40.7246154,13.0353846 39.7076923,13.1646154 C40.7538462,12.54 41.5523077,11.5584615 41.9276923,10.3753846 C40.9523077,10.9569231 39.8753846,11.3676923 38.7276923,11.5969231 C37.8015385,10.6107692 36.4815385,10 35.0415385,10 C32.2476923,10 29.9984615,12.2676923 29.9984615,15.0476923 C29.9984615,15.4476923 30.0323077,15.8323077 30.1153846,16.1984615 C25.92,15.9938462 22.2076923,13.9830769 19.7138462,10.92 C19.2784615,11.6753846 19.0230769,12.54 19.0230769,13.4707692 C19.0230769,15.2184615 19.9230769,16.7676923 21.2646154,17.6646154 C20.4538462,17.6492308 19.6584615,17.4138462 18.9846154,17.0430769 C18.9846154,17.0584615 18.9846154,17.0784615 18.9846154,17.0984615 C18.9846154,19.5507692 20.7338462,21.5876923 23.0276923,22.0569231 C22.6169231,22.1692308 22.1692308,22.2230769 21.7046154,22.2230769 C21.3815385,22.2230769 21.0553846,22.2046154 20.7492308,22.1369231 C21.4030769,24.1353846 23.2584615,25.6046154 25.4646154,25.6523077 C23.7476923,26.9953846 21.5676923,27.8046154 19.2076923,27.8046154 C18.7938462,27.8046154 18.3969231,27.7861538 18,27.7353846 C20.2353846,29.1769231 22.8846154,30 25.7415385,30 C35.0276923,30 40.1046154,22.3076923 40.1046154,15.64 C40.1046154,15.4169231 40.0969231,15.2015385 40.0861538,14.9876923 C41.0876923,14.2769231 41.9292308,13.3892308 42.6153846,12.3676923 Z" id="Shape"></path>
                </g>
            </g>
        </g>
    </g>
</svg>